<?xml version="1.0"?><svg xmlns="http://www.w3.org/2000/svg" viewBox="0 -136 1670 140" version="1.1"><g style="opacity:0.75;fill:#000"><path d="m 11,-131.91383 26.367187,0 0,52.734377 43.945313,-52.734377 29.61914,0 -51.591796,61.523439 62.402346,70.31250037 -34.277346,0 -50.097657,-56.95312537 0,56.95312537 -26.367187,0 0,-131.83593937 z"/><path d="m 130.70703,-0.07789063 52.73438,-131.83593937 26.36718,0 52.64649,131.74804875 -28.03711,0.08789062 -7.91016,-20.21484337 -59.76562,0 -7.91016,20.21484337 -28.125,0 z m 66.62109,-96.67968737 -20.03906,50.097656 39.55078,0 -19.51172,-50.097656 z"/><path d="m 274.4082,-131.91383 30.9375,0 30.58594,43.066408 31.28906,-43.066408 30.23438,0 -48.33985,65.917971 0,65.91796837 -26.36718,0 0,-65.91796837 -48.33985,-65.917971 z"/><path d="m 408.70508,-131.91383 52.82226,131.83593937 26.36719,0 52.64649,-131.83593937 -28.125,0 -38.14454,96.591799 -37.4414,-96.591799 -28.125,0 z"/><path d="m 621.57617,-0.07789063 q -28.125,0 -47.02148,-18.89648437 -18.89649,-18.984375 -18.89649,-47.021484 0,-28.125 18.89649,-47.021481 18.89648,-18.89649 47.02148,-18.89649 28.125,0 47.02149,18.89649 18.89648,18.896481 18.89648,47.021481 0,28.125 -18.89648,47.021484 -18.89649,18.89648437 -47.02149,18.89648437 z m 0.0879,-24.60937537 q 17.49024,0 28.47656,-11.865234 10.98633,-11.865234 10.98633,-29.443359 0,-17.578125 -10.98633,-29.44336 -10.98632,-11.865231 -28.65234,-11.865231 -17.49023,0 -28.47656,11.865231 -10.98633,11.865235 -10.98633,29.44336 0,17.578125 10.98633,29.443359 10.98633,11.865234 28.65234,11.865234 z"/><path d="m 707.18164,-0.07789063 0,-131.83593937 8.78906,0 82.61719,82.617189 0,-82.617189 26.36719,0 0,131.83593937 -9.66797,0 -81.73828,-81.73828137 0,81.73828137 -26.36719,0 z"/><path d="m 907.2207,-131.91383 0,24.60938 43.94532,0 0,107.22655937 26.36718,0 0,-107.22655937 43.9453,0 0,-24.60938 -114.2578,0 z"/><path d="m 1034.2227,-0.07789063 52.7343,-131.83593937 26.3672,0 52.6465,131.74804875 -28.0371,0.08789062 -7.9102,-20.21484337 -59.7656,0 -7.9101,20.21484337 -28.125,0 z m 66.6211,-96.67968737 -20.0391,50.097656 39.5508,0 -19.5117,-50.097656 z"/><path d="m 1210.0918,-105.63453 37.1777,0 q 15.6446,0.52734 16.084,10.195311 -0.4394,16.171875 -16.3476,16.435547 l -36.9141,0 0,-26.630858 z m 0,52.734374 43.3301,0 q 18.2812,0.527343 18.7207,13.183593 -0.4395,18.808594 -18.9844,19.072266 l -43.0664,0 0,-32.255859 z m 78.6621,-40.166016 q -1.8457,-36.826168 -35.1562,-38.759768 l -69.961,0 0,131.74804937 L 1257.8164,0.01 q 38.0566,-2.1972656 39.8145,-39.462891 -1.0547,-18.544922 -18.3692,-30.146484 8.877,-5.888672 9.4922,-23.466797 z"/><path d="m 1350.541,-79.179453 36.9141,0 q 15.9082,-0.263672 16.3476,-14.501953 -0.4394,-13.007814 -16.0839,-13.535154 l -37.1778,0 0,28.037107 z m 52.9981,21.621094 32.8711,57.48046837 -30.2344,0 -31.5528,-54.49218737 -24.082,0 0,54.49218737 -26.3672,0 0,-131.83593937 57.4805,0 q 46.1426,0 46.1426,37.968752 0,28.564453 -24.2578,36.386719 z"/><path d="m 1450.3848,-132.00172 26.2793,0 0,131.92382937 -26.2793,0 0,-131.92382937 z"/><path d="m 1606.8301,-0.07789063 -105.5567,0 0.088,-8.78906247 61.4356,-98.4374969 -61.4356,0 -0.088,-24.60938 105.5567,0 0,9.66797 -61.6992,97.558594 61.6992,0 0,24.60937537 z"/><path d="m 1632.8457,-132.00172 26.2793,0 0,131.92382937 -26.2793,0 0,-131.92382937 z"/></g></svg>