<?xml version="1.0"?><svg xmlns="http://www.w3.org/2000/svg" viewBox="0 -146 837 375" version="1.1"><g style="opacity:0.75;fill:#000"><path d="m 11.5,-132.33594 26.367187,0 0,52.734378 43.945313,-52.734378 29.61914,0 -51.591796,61.52344 62.402346,70.3125 -34.277346,0 -50.097657,-56.953125 0,56.953125 -26.367187,0 0,-131.83594 z"/><path d="m 131.20703,-0.5 52.73438,-131.83594 26.36718,0 L 262.95508,-0.58789062 234.91797,-0.5 l -7.91016,-20.214844 -59.76562,0 -7.91016,20.214844 -28.125,0 z m 66.62109,-96.679687 -20.03906,50.097656 39.55078,0 -19.51172,-50.097656 z"/><path d="m 274.9082,-132.33594 30.9375,0 30.58594,43.066409 31.28906,-43.066409 30.23438,0 -48.33985,65.917971 0,65.917969 -26.36718,0 0,-65.917969 -48.33985,-65.917971 z"/><path d="M 409.20508,-132.33594 462.02734,-0.5 l 26.36719,0 52.64649,-131.83594 -28.125,0 -38.14454,96.591799 -37.4414,-96.591799 -28.125,0 z"/><path d="m 622.07617,-0.5 q -28.125,0 -47.02148,-18.896484 -18.89649,-18.984375 -18.89649,-47.021485 0,-28.125 18.89649,-47.021481 18.89648,-18.89649 47.02148,-18.89649 28.125,0 47.02149,18.89649 18.89648,18.896481 18.89648,47.021481 0,28.125 -18.89648,47.021485 Q 650.20117,-0.5 622.07617,-0.5 Z m 0.0879,-24.609375 q 17.49024,0 28.47656,-11.865234 10.98633,-11.865235 10.98633,-29.44336 0,-17.578125 -10.98633,-29.443359 -10.98632,-11.865232 -28.65234,-11.865232 -17.49023,0 -28.47656,11.865232 -10.98633,11.865234 -10.98633,29.443359 0,17.578125 10.98633,29.44336 10.98633,11.865234 28.65234,11.865234 z"/><path d="m 707.68164,-0.5 0,-131.83594 8.78906,0 82.61719,82.61719 0,-82.61719 26.36719,0 0,131.83594 -9.66797,0 -81.73828,-81.738281 0,81.738281 -26.36719,0 z"/></g><g style="opacity:0.75;fill:#000"><path d="m 42.549999,83.576172 0,24.609378 43.945313,0 0,107.22656 26.367188,0 0,-107.22656 43.94531,0 0,-24.609378 -114.257811,0 z"/><path d="m 169.55195,215.41211 52.73438,-131.835938 26.36718,0 52.64649,131.748048 -28.03711,0.0879 -7.91016,-20.21484 -59.76562,0 -7.91016,20.21484 -28.125,0 z m 66.6211,-96.67969 -20.03907,50.09766 39.55078,0 -19.51171,-50.09766 z"/><path d="m 345.42109,109.85547 37.17774,0 q 15.64453,0.52734 16.08398,10.19531 -0.43945,16.17188 -16.34765,16.43555 l -36.91407,0 0,-26.63086 z m 0,52.73437 43.33008,0 q 18.28125,0.52735 18.7207,13.1836 -0.43945,18.80859 -18.98437,19.07226 l -43.06641,0 0,-32.25586 z M 424.0832,122.42383 Q 422.2375,85.597656 388.92695,83.664062 l -69.96094,0 0,131.748048 74.17969,0.0879 q 38.05664,-2.19727 39.81446,-39.46289 -1.05469,-18.54492 -18.36915,-30.14649 8.87696,-5.88867 9.49219,-23.46679 z"/><path d="m 485.87031,136.31055 36.91406,0 q 15.90821,-0.26368 16.34766,-14.50196 -0.43945,-13.00781 -16.08398,-13.53515 l -37.17774,0 0,28.03711 z m 52.99805,21.62109 32.87109,57.48047 -30.23437,0 -31.55274,-54.49219 -24.08203,0 0,54.49219 -26.36719,0 0,-131.835938 57.48047,0 q 46.14258,0 46.14258,37.968748 0,28.56445 -24.25781,36.38672 z"/><path d="m 585.71406,83.488281 26.2793,0 0,131.923829 -26.2793,0 0,-131.923829 z"/><path d="m 742.15937,215.41211 -105.55664,0 0.0879,-8.78906 61.43555,-98.4375 -61.43555,0 -0.0879,-24.609378 105.55664,0 0,9.667969 -61.69921,97.558589 61.69921,0 0,24.60938 z"/><path d="m 768.175,83.488281 26.2793,0 0,131.923829 -26.2793,0 0,-131.923829 z"/></g></svg>