<svg xmlns="http://www.w3.org/2000/svg" viewBox="0 0 485.212 485.212"><path d="M151.636 363.906h151.618v30.33H151.636zM121.312 30.327h242.595v60.65h30.32v-60.65C394.23 13.595 380.668 0 363.908 0H121.312c-16.748 0-30.327 13.595-30.327 30.327v60.65h30.327v-60.65zM151.636 303.257h181.94v30.327h-181.94z"/><path d="M454.882 121.304H30.334c-16.748 0-30.327 13.59-30.327 30.324v181.956c0 16.76 13.58 30.32 30.327 30.32h60.65v90.98c0 16.765 13.58 30.327 30.328 30.327h242.595c16.76 0 30.32-13.56 30.32-30.325v-90.98h60.654c16.76 0 30.323-13.562 30.323-30.32V151.627c0-16.733-13.56-30.324-30.32-30.324zm-90.975 333.582H121.312V272.93h242.595v181.956zm60.644-242.604c-16.76 0-30.32-13.564-30.32-30.327 0-16.73 13.56-30.327 30.32-30.327 16.766 0 30.332 13.595 30.332 30.327 0 16.762-13.567 30.327-30.33 30.327z"/></svg>