<?xml version="1.0" encoding="UTF-8" standalone="no"?>
<svg
   xmlns:dc="http://purl.org/dc/elements/1.1/"
   xmlns:cc="http://creativecommons.org/ns#"
   xmlns:rdf="http://www.w3.org/1999/02/22-rdf-syntax-ns#"
   xmlns:svg="http://www.w3.org/2000/svg"
   xmlns="http://www.w3.org/2000/svg"
   xmlns:sodipodi="http://sodipodi.sourceforge.net/DTD/sodipodi-0.dtd"
   xmlns:inkscape="http://www.inkscape.org/namespaces/inkscape"
   width="373"
   height="410"
   viewBox="0 0 298.4 328"
   version="1.1"
   id="svg2"
   inkscape:version="0.91 r13725"
   sodipodi:docname="tjhsst-logo-white.svg">
  <metadata
     id="metadata58">
    <rdf:RDF>
      <cc:Work
         rdf:about="">
        <dc:format>image/svg+xml</dc:format>
        <dc:type
           rdf:resource="http://purl.org/dc/dcmitype/StillImage" />
        <dc:title></dc:title>
      </cc:Work>
    </rdf:RDF>
  </metadata>
  <defs
     id="defs56" />
  <sodipodi:namedview
     pagecolor="#ffffff"
     bordercolor="#666666"
     borderopacity="1"
     objecttolerance="10"
     gridtolerance="10"
     guidetolerance="10"
     inkscape:pageopacity="0"
     inkscape:pageshadow="2"
     inkscape:window-width="1366"
     inkscape:window-height="706"
     id="namedview54"
     showgrid="false"
     inkscape:zoom="1.5219369"
     inkscape:cx="334.78465"
     inkscape:cy="415.71425"
     inkscape:window-x="-8"
     inkscape:window-y="-8"
     inkscape:window-maximized="1"
     inkscape:current-layer="svg2"
     units="px" />
  <path
     style="fill:#ffffff"
     d="m 43.156905,0.21449 c -5.2,2.92 -10.769379,5.05938 -16.309379,7.20938 5,16.03 12.728749,31.09968 16.768749,47.42968 3.42,10.35 7.68125,20.40063 11.53125,30.59063 -10.92,4.07 -22.390311,6.09031 -33.720311,8.62031 1.58,6.01 6.38,10.82875 7.5,16.86875 -2.72,6.35 -8.7,10.69 -12,16.75 -10.3199998,17.58 -18.0606238,37.69094 -16.79062381,58.41094 0.65,21.52 7.35062401,42.55 17.64062381,61.35 11.1,16.56 25.699381,30.85906 42.809381,41.13906 6.75,4.04 13.16031,8.81125 20.77031,11.18125 9.15,2.89 18.25,5.94906 27.450005,8.68906 7.93,2.4 17.80471,2.81654 26.9875,4.04376 0.50574,4.32716 0.54536,9.83976 0.72968,15.39687 9.41,0.12 15.86032,0.15073 25.27032,0.025 0.13995,-4.96 -0.27659,-10.36407 0.20625,-15.31407 9.06574,-0.5572 20.82594,-2.50124 30.03594,-5.58124 14.42,-4.57 29.64031,-7.92938 42.07031,-17.00938 29.01,-16.24 51.82937,-43.92062 59.65937,-76.49062 5.52,-17.75 5.95094,-37.07938 0.71094,-54.95938 -5.22,-17.74 -13.84969,-34.67125 -26.42969,-48.33125 3.01,-5.16 6.25875,-10.26 7.96875,-16.05 -11.25,-3.09 -22.95906,-4.48937 -33.78906,-9.00937 3.36,-8.07 6.60969,-16.18969 9.52969,-24.42969 4.74,-18.35 13.57937,-35.28094 18.85937,-53.46094 -3.105,-1.035 -8.7113,-4.27884 -11.91562,-5.54219 -4.8108,-1.89673 -1.66419,-2.08946 -6.88126,0.0141 -26.42,11.2 -52.9428,22.67938 -78.9328,34.85938 -11.03,5.53 -23.87032,3.44906 -35.72032,3.18906 -7.55,-0.17 -14.23906,-3.87 -20.93906,-6.9 -16.670005,-7.22 -32.780315,-15.65968 -49.720315,-22.22968 -7.71,-3.68 -16.02,-6.00938 -23.35,-10.45938 z M 246.30691,12.84418 c -6.51,19.69 -15.72969,38.42969 -21.02969,58.52969 -3.87,12.36 -9.72031,23.96937 -13.67031,36.30937 -7.33,18.64 -13.15063,37.80125 -20.24063,56.53125 -5.2,13.49 -10.49875,26.95875 -15.51875,40.51875 -3.14,11.61 -7.28,23.02031 -12.6,33.82031 0.37,-8.38 3.57,-16.12937 6.6,-23.80937 7.56,-23.58 16.79,-46.56094 25.3,-69.81094 3.06,-6.73 4.82969,-13.89906 6.97969,-20.93906 7.52,-20.65 15.58,-41.12063 22.8,-61.89063 2.35,-12.37 8.39906,-23.53968 11.78906,-35.57968 -9.04,1.53 -16.77875,6.68937 -25.26875,9.75937 -16.48,5.83 -32.29093,13.35 -47.86093,21.25 0.09,-3.08 -0.83969,-6.91875 1.52031,-9.36875 9.99,-6.43 21.81062,-8.98 32.59062,-13.7 15.85,-7.97 32.12938,-15.07031 48.60938,-21.62031 z M 51.877215,13.58324 c 12.33,4.03 23.76031,10.35 35.82031,15.1 14.640005,7.63 30.579695,12.16 45.379695,19.45 0.12,2.94 0.34906,5.93125 0.48906,8.88125 -8.34,-3.13 -15.93,-7.93125 -24.2,-11.23125 -7.58,-3.12 -15.148755,-6.27969 -22.818755,-9.17969 -8.56,-3.32 -16.67062,-7.86937 -25.69062,-9.90937 2.25,8.78 5.93937,17.11937 8.00937,25.95937 8.91,26.46 20.15032,52.11969 28.02032,78.92969 7.730005,21.38 16.270625,42.45031 23.590625,63.97031 3.72,14.6 11.51,27.96 13.2,43.1 -6.83,-12.4 -10.31969,-26.23906 -14.52969,-39.63906 -4.77,-11.12 -8.66031,-22.58125 -13.12031,-33.83125 -3.7,-10.66 -8.470315,-20.95875 -11.270315,-31.91875 -9.59,-28.35 -21.84063,-55.77125 -30.19063,-84.53125 -3.88,-11.84 -9.26906,-23.15 -12.68906,-35.15 z m 170.359385,34.25 c -2.68,8.29 -5.79032,16.42 -8.62032,24.65 -9.68,-1.98 -18.86,-5.81969 -28.6,-7.52969 12.75,-4.93 24.91032,-11.22031 37.22032,-17.12031 z M 74.877215,47.96449 c 12.37,5.77 24.45031,12.28906 37.320315,16.88906 -9.69,2.4 -19.010625,6.06063 -28.690625,8.49063 -2.45,-8.6 -5.92969,-16.85969 -8.62969,-25.37969 z m 47.929695,22.83906 c 4.1,0.26 7.62031,2.76094 11.32031,4.31094 -0.18,2.15 -0.32,4.29938 -0.45,6.45938 -14.37,2.95 -28.56969,6.6 -42.629695,10.8 -1.43,-3.78 -2.73093,-7.61 -4.11093,-11.4 11.4,-5.03 23.430315,-8.89032 35.870315,-10.17032 z m 51.04062,0.0109 c 12.59,1.59 25.33907,3.85 36.58907,10.1 -1.45,3.79 -2.88032,7.57969 -4.32032,11.37969 -14.1,-4.13 -28.27,-8.15969 -42.85,-10.17969 0.05,-2.37 0.11,-4.75031 0.1,-7.12031 3.44,-1.5 6.77125,-3.52969 10.48125,-4.17969 z m -23.91093,14.25 2.72031,0.0797 c -0.48,3.11 -0.89938,6.27 -1.55938,9.35 -0.45,-3.18 -0.76093,-6.26969 -1.16093,-9.42969 z m -2.43751,0.0266 c -0.4,3.16 -0.70937,6.24969 -1.15937,9.42969 -0.66,-3.08 -1.08094,-6.24 -1.56094,-9.35 l 2.72031,-0.0797 z m 91.68751,9.79219 c 10.59,7.27 19.64968,16.46 28.27968,25.9 22.13,27.89 30.57125,68.45031 14.88125,101.37031 -4.67,13.09 -12.92062,24.63094 -23.09062,34.01094 -8.78,9.57 -19.04938,17.81875 -30.90938,23.21875 -11.49,7.13 -24.33,11.67 -37.2,15.6 -9.36,2.08 -18.69,5.00125 -28.4,4.68125 1.48,-4.13 2.46907,-8.55062 4.68907,-12.34062 2.92,-2.3 7.04,-2.08063 10.45,-3.24063 13.6,-2.36 26.41968,-7.75937 39.02968,-13.15937 10.44,-5.83 19.2,-14.21032 28.6,-21.52032 8.93,-8.74 15.37032,-19.72906 21.12032,-30.73906 5.48,-13.67 8.39968,-28.70125 6.97968,-43.43125 -2.63,-13.37 -6.11,-27.07 -14.4,-38.2 -6.57,-11.23 -15.73875,-20.58875 -26.16875,-28.26875 1.91,-4.68 3.99907,-9.29125 6.13907,-13.88125 z M 58.847525,95.86449 c 1.84,4.33 3.68969,8.66906 5.47969,13.03906 -7.33,6.73 -15.87062,12.35032 -21.34062,20.87032 -5.25,8.92 -10.979693,17.69031 -14.529693,27.47031 -2.8,9.06 -4.350624,18.47906 -4.890624,27.93906 0.89,27.28 14.859997,53.45125 35.749997,70.73125 10.76,9.79 23.33094,17.79938 37.41094,21.80938 10.390005,4.19 21.489385,5.87 32.309385,8.55 1.78,4.41 3.62093,8.82968 5.36093,13.27968 -28.88,-0.91 -56.041255,-13.32 -79.981255,-28.75 -9.65,-6.25 -16.40937,-15.56031 -24.509373,-23.47031 -14.7,-17.09 -21.3699998,-40.05 -22.2499998,-62.25 0.46,-26.84 11.0006238,-54.15937 31.0406228,-72.45937 5.62,-6.81 12.36,-12.56938 20.15,-16.75938 z m -14.38125,0.27969 c -2.9,3.32 -6.15875,6.29937 -9.368749,9.30937 -0.89,-2.15 -1.720624,-4.32968 -2.490624,-6.52968 3.92,-1.05 7.889373,-1.91969 11.859373,-2.77969 z m 209.410945,0.8 c 3.89,0.61 7.77969,1.43969 11.52969,2.67969 -0.88,1.64 -1.76,3.26937 -2.65,4.90937 -3.01,-2.46 -5.94969,-5.04906 -8.87969,-7.58906 z m -90.42969,0.1 c 12.92,0.5 25.08938,5.45031 37.35938,9.02031 -0.97,8.46 -4.69938,16.19906 -7.45938,24.13906 -6,16.63 -12.60125,33.06094 -18.08125,49.86094 -2.67,10.29 -6.95906,20.04969 -11.38906,29.67969 -1.41,-37.54 -0.68969,-75.14 -0.42969,-112.7 z m -30.175,0.009 c 0.72,37.76 -0.066,75.53063 -0.33593,113.29063 -4.7,-11.41 -9.57,-22.80031 -12.55,-34.82031 -8.31,-22.87 -16.35969,-45.86 -25.429695,-68.45 12.220005,-4.54 25.325625,-8.46032 38.315625,-10.02032 z m 17.58438,0.0906 c 5.78,13.18 4.27031,27.88969 4.37031,41.92969 -0.35,25.01 0.31906,50.01968 -0.16094,75.02968 0.56,7.3 -2.63937,13.89032 -6.20937,19.97032 -3.29706,-5.97848 -6.39689,-9.79782 -6.61563,-19.97032 -1.37,-36.31 -0.26844,-56.255 -0.54844,-92.575 0.92345,-14.72102 2.46592,-18.61153 4.98594,-24.33437 1.13,-0.02 3.04813,-0.04 4.17813,-0.05 z m 76.77969,25.10937 c 1.49,0.73 3.00093,1.42969 4.41093,2.32969 -4.04,10.01 -8.78062,19.96094 -14.89062,28.91094 2.85,-10.63 8.60969,-20.29063 10.47969,-31.24063 z m -158.779695,0.79063 c 2.96,10.74 7.86,20.76969 11.3,31.32969 -6.44,-9.27 -10.89938,-19.67032 -15.25938,-30.02032 1.32,-0.44 2.63938,-0.86937 3.95938,-1.30937 z m -10.79063,7.37031 c 6.57,8.68 10.49032,18.89906 15.22032,28.58906 14.57,26.24 30.340935,52.34063 38.960935,81.29063 -7.1,-11.52 -14.230005,-23.04063 -20.200005,-35.19063 -7.51,-13.04 -15.23093,-25.95968 -22.86093,-38.92968 -4.51,-10.49 -10.77969,-20.04969 -16.42969,-29.92969 1.32,-1.46 3.97937,-4.36969 5.30937,-5.82969 z m 180.410945,0.0391 c 1.56,1.26 4.67031,3.79 6.22031,5.05 -12.18,22.9 -25.17031,45.36 -38.52031,67.6 -7.01,12.92 -13.95094,25.92094 -22.11094,38.16094 7.12,-20 15.30032,-39.75125 26.27032,-57.98125 9.94,-17.32 17.68062,-35.80969 28.14062,-52.82969 z M 46.656905,142.28324 c 10.78,15.25 18.90031,32.15063 27.92031,48.44063 6.96,10.51 12.94031,21.61937 19.27031,32.50937 9.010005,18.54 21.349695,35.25 30.079695,53.95 -8.01,-1.39 -16.23,-2.03969 -23.85,-5.07969 -17.570005,-7.37 -34.070315,-17.81031 -46.870315,-32.07031 -12.37,-12.83 -18.700627,-30.28969 -21.340627,-47.62969 -3.38,-18.2 6.400627,-34.84031 14.790627,-50.12031 z m 203.559375,0 c 6.24,9.24 11.37,19.28031 14.75,29.92031 3.76,18.46 -0.99,37.9 -10.85,53.7 -5.41,10.42 -13.40968,19.43094 -22.97968,26.21094 -9.99,8.15 -21.27969,14.55969 -33.07969,19.67969 -8.04,2.9 -16.6,3.80906 -24.95,5.38906 7.48,-17.21 19.21937,-32.03906 27.35937,-48.88906 6.58,-12.21 13.61125,-24.17 20.93125,-35.95 9.17,-16.93 19.00875,-33.49094 28.81875,-50.06094 z M 147.3866,237.07387 c -0.23,7.11 -0.51907,14.20937 -0.98907,21.30937 -0.79,-7.08 -1.22,-14.19 -1.6,-21.3 0.65,0 1.93907,6.3e-4 2.58907,-0.009 z m 2.59062,0.009 2.48906,0 c -0.34,7.12 -0.68906,14.25 -1.43906,21.35 -0.52,-7.12 -0.82,-14.24 -1.05,-21.35 z"
     id="path6"
     inkscape:connector-curvature="0" />
</svg>
